<?xml version="1.0" encoding="utf-8"?>
<!-- Generator: Adobe Illustrator 28.1.0, SVG Export Plug-In . SVG Version: 6.00 Build 0)  -->
<svg version="1.0" id="Layer_1" xmlns="http://www.w3.org/2000/svg" xmlns:xlink="http://www.w3.org/1999/xlink" x="0px" y="0px"
	 viewBox="0 0 78.38 72.51" enable-background="new 0 0 78.38 72.51" xml:space="preserve">
<path fill="#010101" d="M1.44,66.19c1.7,2.05,3.81,3.59,6.32,4.63c2.51,1.03,5.15,1.6,7.9,1.68s5.38-0.28,7.89-1.1
	c2.51-0.82,4.6-2.07,6.29-3.73c1.8-1.77,3.09-3.78,3.86-6.02c0.77-2.24,0.89-4.55,0.36-6.93c-0.53-2.38-1.86-4.66-3.99-6.85
	c-2.47-2.52-5.32-3.95-8.57-4.3c-3.25-0.35-6.05,0.62-8.4,2.9c-1.02,0.99-1.76,2-2.21,3.03c-0.46,1.03-0.8,2.04-1.03,3.03
	c-0.23,0.99-0.5,1.91-0.81,2.77c-0.31,0.86-0.81,1.65-1.51,2.36c-0.53,0.51-1.19,0.8-1.98,0.89c-0.79,0.09-1.6,0.19-2.43,0.32
	c-0.83,0.13-1.54,0.49-2.14,1.11c-0.69,0.65-1.04,1.54-1.05,2.67C-0.1,63.76,0.41,64.95,1.44,66.19z M3.44,64.97
	c-0.68-0.8-1.02-1.51-1.02-2.15c0-0.63,0.17-1.12,0.51-1.46c0.4-0.37,0.95-0.58,1.65-0.62c0.7-0.04,1.45-0.14,2.26-0.3
	c0.81-0.16,1.57-0.59,2.27-1.29c0.88-0.82,1.51-1.71,1.89-2.67c0.38-0.96,0.69-1.92,0.92-2.9c0.23-0.98,0.54-1.94,0.91-2.89
	c0.37-0.95,0.97-1.84,1.81-2.65c1.85-1.82,4.12-2.57,6.81-2.27c2.69,0.31,5.04,1.49,7.06,3.55c2.69,2.74,3.9,5.65,3.61,8.74
	c-0.29,3.09-1.58,5.78-3.88,8.06c-1.49,1.5-3.33,2.6-5.52,3.32c-2.19,0.72-4.49,1.04-6.89,0.95c-2.41-0.08-4.71-0.58-6.91-1.49
	C6.72,68.02,4.9,66.7,3.44,64.97z M33.58,55.76c2.05-0.02,3.84-0.45,5.36-1.28c1.53-0.83,3.22-2.18,5.08-4.05
	c1.87-1.87,3.94-4.15,6.21-6.82c2.27-2.67,4.6-5.53,7.01-8.55c2.4-3.03,4.74-6.04,7.01-9.05c2.27-3,4.34-5.8,6.2-8.37
	s3.41-4.72,4.64-6.44c1.23-1.72,1.99-2.8,2.28-3.25c0.68-1.01,1.02-2.02,1.02-3.05c0-1.02-0.24-1.95-0.71-2.78
	c-0.48-0.83-1.12-1.48-1.93-1.95C74.92-0.3,74.01-0.53,73-0.51c-1.01,0.02-2.03,0.38-3.07,1.08c-0.42,0.29-1.49,1.05-3.2,2.28
	c-1.72,1.23-3.86,2.77-6.42,4.63c-2.56,1.86-5.35,3.93-8.35,6.2c-3,2.27-6.03,4.6-9.07,6.99c-3.04,2.39-5.9,4.72-8.58,7.01
	c-2.67,2.28-4.95,4.34-6.82,6.19c-1.86,1.86-3.2,3.56-4.02,5.1c-0.82,1.54-1.27,3.33-1.35,5.38l2.3,0.32c0-1.52,0.39-3.06,1.17-4.62
	c0.78-1.56,1.92-3.1,3.43-4.6c2.35-2.32,5.2-4.89,8.55-7.72c3.35-2.83,6.86-5.65,10.53-8.47c3.67-2.82,7.15-5.45,10.44-7.9
	c3.29-2.44,6.07-4.48,8.33-6.13c2.26-1.64,3.65-2.64,4.15-2.99c1.11-0.8,2.17-1.01,3.17-0.62c1,0.38,1.69,1.08,2.06,2.1
	c0.37,1.02,0.18,2.08-0.56,3.2c-0.28,0.41-1.04,1.47-2.26,3.17c-1.22,1.71-2.78,3.83-4.66,6.37c-1.89,2.54-3.96,5.29-6.23,8.26
	c-2.26,2.97-4.6,5.96-7,8.96c-2.4,3.01-4.72,5.84-6.97,8.49c-2.25,2.66-4.29,4.89-6.13,6.7c-1.83,1.86-3.45,3.1-4.85,3.71
	c-1.41,0.61-2.86,0.91-4.38,0.89L33.58,55.76z M42.73,49.18l2.11-0.37c-0.22-1.76-0.82-3.53-1.8-5.31
	c-0.98-1.77-2.23-3.41-3.73-4.92c-1.5-1.51-3.14-2.74-4.91-3.71c-1.77-0.97-3.55-1.57-5.34-1.79l-0.32,2.07
	c2.04,0.24,4.1,1.08,6.18,2.54c2.07,1.46,3.84,3.23,5.31,5.3C41.69,45.07,42.52,47.14,42.73,49.18z"/>
</svg>
