<svg xmlns="http://www.w3.org/2000/svg" viewBox="0 0 78.38 72.51" xmlns:v="https://vecta.io/nano"><path fill="#010101" d="M1.44 66.19c1.7 2.05 3.81 3.59 6.32 4.63a22.39 22.39 0 0 0 7.9 1.68c2.75.08 5.38-.28 7.89-1.1s4.6-2.07 6.29-3.73c1.8-1.77 3.09-3.78 3.86-6.02s.89-4.55.36-6.93-1.86-4.66-3.99-6.85c-2.47-2.52-5.32-3.95-8.57-4.3s-6.05.62-8.4 2.9c-1.02.99-1.76 2-2.21 3.03a16.69 16.69 0 0 0-1.03 3.03c-.23.99-.5 1.91-.81 2.77s-.81 1.65-1.51 2.36c-.53.51-1.19.8-1.98.89l-2.43.32a3.68 3.68 0 0 0-2.14 1.11c-.69.65-1.04 1.54-1.05 2.67-.04 1.11.47 2.3 1.5 3.54zm2-1.22c-.68-.8-1.02-1.51-1.02-2.15 0-.63.17-1.12.51-1.46.4-.37.95-.58 1.65-.62s1.45-.14 2.26-.3 1.57-.59 2.27-1.29c.88-.82 1.51-1.71 1.89-2.67a20.73 20.73 0 0 0 .92-2.9c.23-.98.54-1.94.91-2.89s.97-1.84 1.81-2.65c1.85-1.82 4.12-2.57 6.81-2.27 2.69.31 5.04 1.49 7.06 3.55 2.69 2.74 3.9 5.65 3.61 8.74s-1.58 5.78-3.88 8.06c-1.49 1.5-3.33 2.6-5.52 3.32s-4.49 1.04-6.89.95c-2.41-.08-4.71-.58-6.91-1.49-2.2-.88-4.02-2.2-5.48-3.93zm30.14-9.21c2.05-.02 3.84-.45 5.36-1.28 1.53-.83 3.22-2.18 5.08-4.05l6.21-6.82c2.27-2.67 4.6-5.53 7.01-8.55l7.01-9.05 6.2-8.37 4.64-6.44 2.28-3.25c.68-1.01 1.02-2.02 1.02-3.05 0-1.02-.24-1.95-.71-2.78-.48-.83-1.12-1.48-1.93-1.95A5.25 5.25 0 0 0 73-.51c-1.01.02-2.03.38-3.07 1.08l-3.2 2.28-6.42 4.63-8.35 6.2-9.07 6.99c-3.04 2.39-5.9 4.72-8.58 7.01-2.67 2.28-4.95 4.34-6.82 6.19-1.86 1.86-3.2 3.56-4.02 5.1s-1.27 3.33-1.35 5.38l2.3.32c0-1.52.39-3.06 1.17-4.62s1.92-3.1 3.43-4.6c2.35-2.32 5.2-4.89 8.55-7.72s6.86-5.65 10.53-8.47l10.44-7.9 8.33-6.13 4.15-2.99c1.11-.8 2.17-1.01 3.17-.62 1 .38 1.69 1.08 2.06 2.1s.18 2.08-.56 3.2c-.28.41-1.04 1.47-2.26 3.17l-4.66 6.37-6.23 8.26-7 8.96-6.97 8.49c-2.25 2.66-4.29 4.89-6.13 6.7-1.83 1.86-3.45 3.1-4.85 3.71-1.41.61-2.86.91-4.38.89l.37 2.29zm9.15-6.58l2.11-.37c-.22-1.76-.82-3.53-1.8-5.31-.98-1.77-2.23-3.41-3.73-4.92s-3.14-2.74-4.91-3.71-3.55-1.57-5.34-1.79l-.32 2.07c2.04.24 4.1 1.08 6.18 2.54a22.09 22.09 0 0 1 5.31 5.3c1.46 2.08 2.29 4.15 2.5 6.19z"/></svg>